<svg width="24" height="24" viewBox="0 0 24 24" xmlns="http://www.w3.org/2000/svg" fill="#ffffff">
<path d="M21.5563 2.45886C20.9647 1.86727 20.0091 1.86727 19.4175 2.45886L12 9.86121L4.58248 2.44369C3.9909 1.8521 3.03527 1.8521 2.44369 2.44369C1.8521 3.03527 1.8521 3.9909 2.44369 4.58248L9.86121 12L2.44369 19.4175C1.8521 20.0091 1.8521 20.9647 2.44369 21.5563C3.03527 22.1479 3.9909 22.1479 4.58248 21.5563L12 14.1388L19.4175 21.5563C20.0091 22.1479 20.9647 22.1479 21.5563 21.5563C22.1479 20.9647 22.1479 20.0091 21.5563 19.4175L14.1388 12L21.5563 4.58248C22.1327 4.00607 22.1327 3.03527 21.5563 2.45886Z"/>
</svg>
